<svg xmlns="http://www.w3.org/2000/svg" viewBox="0 0 512 512" width="512" height="512">
  <defs>
    <linearGradient id="g" x1="0" y1="0" x2="1" y2="1">
      <stop offset="0%" stop-color="#203a6e"/>
      <stop offset="100%" stop-color="#0b1d37"/>
    </linearGradient>
  </defs>
  <rect width="512" height="512" rx="96" fill="url(#g)"/>
  <circle cx="256" cy="256" r="138" fill="#28d0b9" opacity="0.25"/>
  <path d="M165 295c0-53 36-91 90-91 41 0 73 22 87 58h-42c-8-15-22-24-44-24-30 0-49 21-49 57 0 35 19 57 49 57 22 0 36-9 44-24h42c-14 36-46 58-87 58-54 0-90-38-90-91z" fill="#e9f0ff"/>
</svg>
